<svg width="1200" height="2168" viewBox="0 0 1200 2168" fill="none" xmlns="http://www.w3.org/2000/svg">
<path opacity="0.22" fill-rule="evenodd" clip-rule="evenodd" d="M347.829 -408L549 -291.55L750.171 -408L956.454 -288.591V-57.6237L1155.55 57.623L1356.72 -58.8274L1563 60.582V299.534L1361.22 416.339L1360.87 643.421L1558.96 758.084V997.036L1357.96 1113.39L1357.61 1345.68L1157.02 1461.29L1156.67 1692.63L1358.8 1809.64V2048.59L1152.51 2168L951.342 2051.55L750.171 2168L543.888 2048.59V1815.01L343.657 1700.01L142.066 1816.2L-64.5753 1697.51L-64.2233 1464.41L-264.982 1349.11L-264.63 1115.88L-465 999.897V760.945L-264.977 645.16L-264.63 415.521L-465 299.534V60.582L-258.717 -58.8274L-57.5458 57.6229L141.546 -57.6237V-288.591L347.829 -408ZM944.416 1114.68L944.069 1343.91L749.06 1456.3L554.112 1343.45V1115.73L750.171 1002.24L944.416 1114.68ZM975.099 1090.57L950.277 1104.88L754.329 991.453L754.67 765.511L951.81 651.394L1024.67 693.241L1146.39 763.701V991.42L975.099 1090.57ZM1352.9 1104.78L1294.3 1071.12L1156.61 991.42V765.974L1355.07 651.595L1549.11 763.918V991.202L1352.9 1104.78ZM956.454 1341.93L1150.63 1453.46L1347.7 1339.87L1348.04 1113.76L1270.3 1068.76L1151.41 1000.48L980.659 1098.89L956.454 1112.9V1341.93ZM1351.3 415.985L1350.96 639.668L1151.9 754.892L1048.68 695.606L957.253 642.682L957.594 417.08L1135.46 314.121L1154.67 303.05L1351.3 415.985ZM744.048 764.755V991.825L547.337 1105.2L350.707 992.267L351.048 766.252L528.861 663.323L548.12 652.223L744.048 764.755ZM946.606 640.831L748.408 755.561L554.112 643.09V415.371L750.171 301.88L946.606 415.588V640.831ZM754.67 1465.88L754.328 1692.52L949.678 1804.72L1146.75 1691.14L1147.09 1464.68L951.151 1352.14L754.67 1465.88ZM548.12 1352.59L743.471 1464.79L743.126 1692.72L547.337 1805.56L350.707 1692.63L351.048 1466.62L529.035 1363.59L548.12 1352.59ZM946.23 1815.25V2042.97L750.171 2156.47L553.736 2042.76V1815.47L750.171 1701.76L946.23 1815.25ZM956.454 2042.97L1152.51 2156.47L1348.95 2042.76V1815.47L1152.51 1701.76L956.454 1815.25V2042.97ZM-58.5412 1456.25L138.648 1342.6L138.99 1116.62L61.2908 1071.65L-57.6394 1003.34L-228.457 1101.79L-254.711 1116.99L-255.053 1343.38L-58.5412 1456.25ZM-54.6456 1691.79L-54.3038 1465.46L142.886 1351.81L339.397 1464.68L339.055 1691.14L141.984 1804.72L-54.6456 1691.79ZM340.06 994.064L143.853 1107.64L85.2905 1074L-52.4339 994.281V766.562L143.625 653.07L340.06 766.779V994.064ZM-62.6579 994.281L-234 1093.46L-258.771 1107.74L-455.152 994.064V766.779L-258.717 653.07L-62.6579 766.562V994.281ZM138.99 416.26L61.2296 371.248L-57.6394 302.975L-228.365 401.374L-254.711 416.624L-255.053 643.018L-58.4229 755.953L138.648 642.37L138.99 416.26ZM340.06 293.7L143.854 407.277L85.2447 373.615L-52.4339 293.918V66.1982L143.625 -47.2929L340.06 66.4157V293.7ZM-62.6579 293.918L-233.913 393.05L-258.771 407.378L-455.152 293.7V66.4157L-258.717 -47.2929L-62.6579 66.1982V293.918ZM1129.98 305.759L953.994 407.188L757.94 293.7V66.4157L954.375 -47.2929L1150.43 66.1984V293.918L1129.98 305.759ZM543.888 1343.45L523.515 1355.25L347.448 1456.72L151.394 1343.24V1115.95L347.829 1002.24L543.888 1115.73V1343.45ZM523.39 654.956L347.448 756.361L151.394 642.873V415.588L346.712 302.526L543.888 415.774V643.09L523.39 654.956ZM750.399 58.104L946.606 -55.4724V-282.757L750.171 -396.466L554.112 -282.974V-55.2549L691.776 24.4334L750.399 58.104ZM347.775 58.2051L151.394 -55.4724V-282.757L347.829 -396.466L543.888 -282.974V-55.2549L372.607 43.8928L347.775 58.2051ZM378.134 52.2285L548.906 -46.1976L667.761 22.0668L745.536 67.0874L745.194 293.197L548.549 406.535L351.495 292.468L351.835 67.4515L378.134 52.2285ZM1160.66 293.918V66.1984L1356.72 -47.2929L1553.15 66.4157V293.7L1356.72 407.409L1160.66 293.918Z" fill="#FFD689"/>
</svg>
