<svg width="1200" height="2476" viewBox="0 0 1200 2476" fill="none" xmlns="http://www.w3.org/2000/svg">
<mask id="mask0_230_52" style="mask-type:alpha" maskUnits="userSpaceOnUse" x="0" y="0" width="1200" height="2437">
<rect width="1200" height="2437" fill="white"/>
</mask>
<g mask="url(#mask0_230_52)">
<path opacity="0.22" fill-rule="evenodd" clip-rule="evenodd" d="M683.829 -405L885 -288.55L1086.17 -405L1292.45 -285.591V-54.6237L1491.55 60.623L1692.72 -55.8274L1899 63.582V302.534L1697.22 419.339L1696.87 646.421L1894.96 761.084V1000.04L1693.96 1116.39L1693.61 1348.68L1493.02 1464.29L1492.67 1695.63L1694.8 1812.64V2051.59L1488.51 2171L1287.34 2054.55L1086.17 2171L879.888 2051.59V1818.01L679.657 1703.01L478.066 1819.2L271.425 1700.51L271.777 1467.41L71.0178 1352.11L71.37 1118.88L-129 1002.9V763.945L71.0232 648.16L71.37 418.521L-129 302.534V63.582L77.2831 -55.8274L278.454 60.6229L477.546 -54.6237V-285.591L683.829 -405ZM1280.42 1117.68L1280.07 1346.91L1085.06 1459.3L890.112 1346.45V1118.73L1086.17 1005.24L1280.42 1117.68ZM1311.1 1093.57L1286.28 1107.88L1090.33 994.453L1090.67 768.511L1287.81 654.394L1360.67 696.241L1482.39 766.701V994.42L1311.1 1093.57ZM1688.9 1107.78L1630.3 1074.12L1492.61 994.42V768.974L1691.07 654.595L1885.11 766.918V994.202L1688.9 1107.78ZM1292.45 1344.93L1486.63 1456.46L1683.7 1342.87L1684.04 1116.76L1606.3 1071.76L1487.41 1003.48L1316.66 1101.89L1292.45 1115.9V1344.93ZM1687.3 418.985L1686.96 642.668L1487.9 757.892L1384.68 698.606L1293.25 645.682L1293.59 420.08L1471.46 317.121L1490.67 306.05L1687.3 418.985ZM1080.05 767.755V994.825L883.337 1108.2L686.707 995.267L687.048 769.252L864.861 666.323L884.12 655.223L1080.05 767.755ZM1282.61 643.831L1084.41 758.561L890.112 646.09V418.371L1086.17 304.88L1282.61 418.588V643.831ZM1090.67 1468.88L1090.33 1695.52L1285.68 1807.72L1482.75 1694.14L1483.09 1467.68L1287.15 1355.14L1090.67 1468.88ZM884.12 1355.59L1079.47 1467.79L1079.13 1695.72L883.337 1808.56L686.707 1695.63L687.048 1469.62L865.035 1366.59L884.12 1355.59ZM1282.23 1818.25V2045.97L1086.17 2159.47L889.736 2045.76V1818.47L1086.17 1704.76L1282.23 1818.25ZM1292.45 2045.97L1488.51 2159.47L1684.95 2045.76V1818.47L1488.51 1704.76L1292.45 1818.25V2045.97ZM277.459 1459.25L474.648 1345.6L474.99 1119.62L397.291 1074.65L278.361 1006.34L107.543 1104.79L81.2894 1119.99L80.9475 1346.38L277.459 1459.25ZM281.354 1694.79L281.696 1468.46L478.886 1354.81L675.397 1467.68L675.055 1694.14L477.984 1807.72L281.354 1694.79ZM676.06 997.064L479.853 1110.64L421.29 1077L283.566 997.281V769.562L479.625 656.07L676.06 769.779V997.064ZM273.342 997.281L102 1096.46L77.2295 1110.74L-119.152 997.064V769.779L77.2831 656.07L273.342 769.562V997.281ZM474.99 419.26L397.23 374.248L278.361 305.975L107.635 404.374L81.2894 419.624L80.9475 646.018L277.577 758.953L474.648 645.37L474.99 419.26ZM676.06 296.7L479.854 410.277L421.245 376.615L283.566 296.918V69.1982L479.625 -44.2929L676.06 69.4157V296.7ZM273.342 296.918L102.087 396.05L77.2293 410.378L-119.152 296.7V69.4157L77.2831 -44.2929L273.342 69.1982V296.918ZM1465.98 308.759L1289.99 410.188L1093.94 296.7V69.4157L1290.37 -44.2929L1486.43 69.1984V296.918L1465.98 308.759ZM879.888 1346.45L859.515 1358.25L683.448 1459.72L487.394 1346.24V1118.95L683.829 1005.24L879.888 1118.73V1346.45ZM859.39 657.956L683.448 759.361L487.394 645.873V418.588L682.712 305.526L879.888 418.774V646.09L859.39 657.956ZM1086.4 61.104L1282.61 -52.4724V-279.757L1086.17 -393.466L890.112 -279.974V-52.2549L1027.78 27.4334L1086.4 61.104ZM683.775 61.2051L487.394 -52.4724V-279.757L683.829 -393.466L879.888 -279.974V-52.2549L708.607 46.8928L683.775 61.2051ZM714.134 55.2285L884.906 -43.1976L1003.76 25.0668L1081.54 70.0874L1081.19 296.197L884.549 409.535L687.495 295.468L687.835 70.4515L714.134 55.2285ZM1496.66 296.918V69.1984L1692.72 -44.2929L1889.15 69.4157V296.7L1692.72 410.409L1496.66 296.918Z" fill="#FFD689"/>
<path d="M0 -151H1200V971H0V-151Z" fill="url(#paint0_linear_230_52)"/>
</g>
<defs>
<linearGradient id="paint0_linear_230_52" x1="600" y1="405.035" x2="595.403" y2="970.963" gradientUnits="userSpaceOnUse">
<stop offset="0.033683" stop-color="#1C1C1C"/>
<stop offset="0.661979" stop-color="#D79E4B"/>
<stop offset="1" stop-color="#FFD689" stop-opacity="0"/>
</linearGradient>
</defs>
</svg>
