<svg width="380" height="115" viewBox="0 0 380 115" fill="none" xmlns="http://www.w3.org/2000/svg">
<g filter="url(#filter0_d_31_277)">
<g opacity="0.9" filter="url(#filter1_d_31_277)">
<path d="M181.076 5.34238C186.992 4.45246 193.008 4.45246 198.924 5.34238L330.07 25.0686C344.139 27.1848 354.545 39.2727 354.545 53.5C354.545 67.7273 344.139 79.8152 330.07 81.9314L198.924 101.658C193.008 102.548 186.992 102.548 181.076 101.658L49.9298 81.9314C35.8608 79.8152 25.4552 67.7273 25.4552 53.5C25.4552 39.2727 35.8608 27.1848 49.9299 25.0686L181.076 5.34238Z" fill="#FFD689"/>
<path d="M181.373 7.32013C187.092 6.45988 192.908 6.45988 198.627 7.32013L329.773 27.0464C342.863 29.0154 352.545 40.2624 352.545 53.5C352.545 66.7376 342.863 77.9846 329.773 79.9536L198.627 99.6799C192.908 100.54 187.092 100.54 181.373 99.6799L50.2273 79.9536C37.1369 77.9846 27.4552 66.7376 27.4552 53.5C27.4552 40.2624 37.137 29.0154 50.2273 27.0464L181.373 7.32013Z" stroke="#9E5829" stroke-width="4"/>
</g>
<path d="M160.128 57H156L149.784 48.312V57H146.16V39.864H149.784V48.168L155.928 39.864H159.792L153.552 48.096L160.128 57ZM160.125 43.896H164.037L166.509 51.264C166.589 51.504 166.653 51.744 166.701 51.984C166.765 52.224 166.813 52.472 166.845 52.728C166.893 52.984 166.925 53.256 166.941 53.544H167.013C167.061 53.128 167.125 52.736 167.205 52.368C167.301 51.984 167.405 51.616 167.517 51.264L169.941 43.896H173.781L168.237 58.68C167.901 59.576 167.461 60.328 166.917 60.936C166.389 61.544 165.773 62 165.069 62.304C164.365 62.608 163.597 62.76 162.765 62.76C162.365 62.76 162.013 62.736 161.709 62.688C161.421 62.656 161.165 62.616 160.941 62.568V59.736C161.117 59.768 161.325 59.8 161.565 59.832C161.821 59.864 162.085 59.88 162.357 59.88C162.853 59.88 163.277 59.776 163.629 59.568C163.997 59.36 164.301 59.072 164.541 58.704C164.781 58.352 164.973 57.968 165.117 57.552L165.333 56.904L160.125 43.896ZM187.565 43.896V57H183.989V46.584H179.237V57H175.661V43.896H187.565ZM194.773 49.08C194.773 49.352 194.757 49.688 194.725 50.088C194.709 50.488 194.685 50.896 194.653 51.312C194.637 51.728 194.613 52.096 194.581 52.416C194.549 52.736 194.525 52.96 194.509 53.088L200.557 43.896H204.853V57H201.397V51.768C201.397 51.336 201.413 50.864 201.445 50.352C201.477 49.824 201.509 49.336 201.541 48.888C201.589 48.424 201.621 48.072 201.637 47.832L195.613 57H191.317V43.896H194.773V49.08ZM219.439 46.584H215.143V57H211.567V46.584H207.271V43.896H219.439V46.584ZM227.952 48.96C229.296 48.96 230.408 49.104 231.288 49.392C232.168 49.664 232.816 50.088 233.232 50.664C233.664 51.24 233.88 51.96 233.88 52.824C233.88 53.672 233.68 54.408 233.28 55.032C232.896 55.656 232.28 56.144 231.432 56.496C230.584 56.832 229.472 57 228.096 57H221.856V43.896H225.432V48.96H227.952ZM230.304 52.872C230.304 52.36 230.096 51.992 229.68 51.768C229.28 51.544 228.68 51.432 227.88 51.432H225.432V54.528H227.928C228.632 54.528 229.2 54.4 229.632 54.144C230.08 53.888 230.304 53.464 230.304 52.872Z" fill="#3C4529"/>
</g>
<defs>
<filter id="filter0_d_31_277" x="-8" y="0" width="396" height="115" filterUnits="userSpaceOnUse" color-interpolation-filters="sRGB">
<feFlood flood-opacity="0" result="BackgroundImageFix"/>
<feColorMatrix in="SourceAlpha" type="matrix" values="0 0 0 0 0 0 0 0 0 0 0 0 0 0 0 0 0 0 127 0" result="hardAlpha"/>
<feOffset dy="4"/>
<feGaussianBlur stdDeviation="4"/>
<feComposite in2="hardAlpha" operator="out"/>
<feColorMatrix type="matrix" values="0 0 0 0 0 0 0 0 0 0 0 0 0 0 0 0 0 0 0.25 0"/>
<feBlend mode="normal" in2="BackgroundImageFix" result="effect1_dropShadow_31_277"/>
<feBlend mode="normal" in="SourceGraphic" in2="effect1_dropShadow_31_277" result="shape"/>
</filter>
<filter id="filter1_d_31_277" x="21.4552" y="4.67493" width="337.09" height="105.65" filterUnits="userSpaceOnUse" color-interpolation-filters="sRGB">
<feFlood flood-opacity="0" result="BackgroundImageFix"/>
<feColorMatrix in="SourceAlpha" type="matrix" values="0 0 0 0 0 0 0 0 0 0 0 0 0 0 0 0 0 0 127 0" result="hardAlpha"/>
<feOffset dy="4"/>
<feGaussianBlur stdDeviation="2"/>
<feComposite in2="hardAlpha" operator="out"/>
<feColorMatrix type="matrix" values="0 0 0 0 0 0 0 0 0 0 0 0 0 0 0 0 0 0 0.25 0"/>
<feBlend mode="normal" in2="BackgroundImageFix" result="effect1_dropShadow_31_277"/>
<feBlend mode="normal" in="SourceGraphic" in2="effect1_dropShadow_31_277" result="shape"/>
</filter>
</defs>
</svg>
