<svg width="748" height="211" viewBox="0 0 748 211" fill="none" xmlns="http://www.w3.org/2000/svg">
<g filter="url(#filter0_d_31_289)">
<g opacity="0.9" filter="url(#filter1_d_31_289)">
<path d="M365.07 5.3441C370.99 4.45305 377.01 4.45305 382.93 5.3441L649.687 45.4943C677.398 49.6653 697.893 73.4759 697.893 101.5C697.893 129.524 677.398 153.335 649.686 157.506L382.93 197.656C377.01 198.547 370.99 198.547 365.07 197.656L98.3135 157.506C70.6015 153.335 50.1065 129.524 50.1065 101.5C50.1065 73.4759 70.6015 49.6652 98.3135 45.4942L365.07 5.3441Z" fill="#FFD689"/>
<path d="M365.367 7.32183C371.09 6.46048 376.91 6.46048 382.633 7.32182L649.389 47.472C676.122 51.4957 695.893 74.4655 695.893 101.5C695.893 128.535 676.122 151.504 649.389 155.528L382.633 195.678C376.91 196.54 371.09 196.54 365.367 195.678L98.6112 155.528C71.8777 151.504 52.1065 128.535 52.1065 101.5C52.1065 74.4655 71.8778 51.4957 98.6112 47.472L365.367 7.32183Z" stroke="#9E5829" stroke-width="4"/>
</g>
<path d="M309.281 51.0293C309.281 52.3418 308.828 58.4668 307.921 69.4043C307.109 79.1855 306.703 87.373 306.703 93.9668C306.703 94.7168 306.671 95.5137 306.609 96.3574C306.734 97.8887 306.828 98.6543 306.89 98.6543C306.984 98.6543 307.562 96.3262 308.625 91.6699C309.906 86.6074 311.406 81.0293 313.125 74.9355C315.031 68.5605 316.859 63.6699 318.609 60.2637C321.796 54.1074 324.828 51.0293 327.703 51.0293C330.64 51.0293 332.109 53.0605 332.109 57.123C332.109 61.1543 331.609 64.8262 330.609 68.1387C329.671 71.7324 328.734 73.5293 327.796 73.5293C327.39 73.5293 327.046 71.0605 326.765 66.123C326.578 61.1855 326.312 58.7168 325.968 58.7168C325.062 58.7168 323.5 60.9668 321.281 65.4668C319.312 69.498 317.515 73.6543 315.89 77.9355C315.39 79.248 314.781 81.0449 314.062 83.3262C313.843 83.9824 313.437 85.3574 312.843 87.4512L311.671 91.4824L310.921 94.4355C311.046 94.5605 311.109 94.6543 311.109 94.7168C312.453 92.498 313.953 90.6855 315.609 89.2793C317.296 87.873 318.89 87.1699 320.39 87.1699C322.64 87.1699 323.765 88.248 323.765 90.4043C323.765 92.498 323.187 97.0137 322.031 103.951C320.875 110.764 320.296 114.951 320.296 116.514C320.296 117.232 320.406 117.811 320.625 118.248C322.031 117.029 323.843 114.701 326.062 111.264L332.39 101.748C334.234 98.873 335.39 97.4355 335.859 97.4355C336.015 97.4355 336.187 97.5293 336.375 97.7168C336.562 97.9043 336.656 98.0918 336.656 98.2793C336.75 98.4668 336.515 99.0918 335.953 100.154C335.421 101.186 334.812 102.279 334.125 103.436C333.437 104.592 333.062 105.248 333 105.404L329.531 112.295L326.671 117.404C324.64 121.029 322.843 122.842 321.281 122.842C319.187 122.842 317.328 122.373 315.703 121.436C315.515 121.029 315.39 119.92 315.328 118.107C315.265 116.295 315.328 114.576 315.515 112.951L316.265 106.436C316.984 101.529 317.343 98.0449 317.343 95.9824C317.343 94.5137 316.953 93.7793 316.171 93.7793C315.234 93.7793 313.859 95.3105 312.046 98.373C310.296 101.217 309.218 103.811 308.812 106.154C308.218 109.529 307.921 114.076 307.921 119.795C307.921 121.326 308.156 123.014 308.625 124.857C309.062 126.576 309.281 127.576 309.281 127.857C309.281 129.076 308.765 129.686 307.734 129.686C306.765 129.686 305.484 128.748 303.89 126.873C302.359 125.061 301.593 123.279 301.593 121.529C301.593 121.436 301.609 121.232 301.64 120.92C301.671 120.639 301.687 120.451 301.687 120.357C301.687 119.482 301.593 117.889 301.406 115.576C301.218 113.295 301.125 111.186 301.125 109.248C301.125 105.779 301.156 102.639 301.218 99.8262C301.281 97.0137 301.312 93.9355 301.312 90.5918C301.312 85.5293 301.281 81.4355 301.218 78.3105C301.156 75.1855 301.125 71.373 301.125 66.873C301.125 66.623 301.062 65.2793 300.937 62.8418C300.812 60.4043 300.75 59.0293 300.75 58.7168C300.75 57.3105 300.421 56.6074 299.765 56.6074C298.953 56.6074 297 58.1543 293.906 61.248C291.625 63.3418 290.484 65.9199 290.484 68.9824C290.484 69.1074 290.5 69.3418 290.531 69.6855C290.562 70.0293 290.578 70.248 290.578 70.3418C290.578 70.7168 290.437 70.9043 290.156 70.9043C289.156 70.9043 287.906 70.3418 286.406 69.2168C284.875 67.9668 284.109 66.9355 284.109 66.123C284.109 64.9043 284.843 63.4668 286.312 61.8105C287.781 60.248 289.39 58.8418 291.14 57.5918C292.078 56.873 293.203 56.1699 294.515 55.4824C295.671 54.7949 296.5 54.2949 297 53.9824C297.531 53.6387 298.062 53.2324 298.593 52.7637C299.125 52.2949 299.515 51.8262 299.765 51.3574C300.109 50.8574 300.375 50.3105 300.562 49.7168C300.906 48.7793 301.234 48.1699 301.546 47.8887C301.89 47.5762 302.421 47.4199 303.14 47.4199C304.359 47.4199 305.671 47.8262 307.078 48.6387C308.546 49.4824 309.281 50.2793 309.281 51.0293ZM362.109 96.6387C362.546 96.6387 362.765 96.9043 362.765 97.4355C362.765 97.6855 361.234 100.529 358.171 105.967C357.609 106.936 356.734 108.295 355.546 110.045C354.359 111.764 353.218 113.404 352.125 114.967C351.062 116.498 350.453 117.373 350.296 117.592C350.046 118.998 349.843 120.889 349.687 123.264C349.406 127.232 348.734 130.654 347.671 133.529C346.578 136.529 344.984 138.029 342.89 138.029C340.921 138.029 339.156 137.311 337.593 135.873C336.062 134.436 335.296 132.748 335.296 130.811C335.296 127.248 338.562 122.201 345.093 115.67C346 107.92 346.453 100.811 346.453 94.3418C345.859 96.9043 344.734 100.623 343.078 105.498C341.546 110.154 340.109 112.482 338.765 112.482C337.359 112.482 336.046 111.842 334.828 110.561C333.609 109.279 333 107.748 333 105.967C333 101.717 333.328 96.5293 333.984 90.4043C334.265 87.5918 334.906 86.1855 335.906 86.1855C336.718 86.1855 337.625 86.4824 338.625 87.0762C339.625 87.6699 340.125 88.2637 340.125 88.8574L339.703 91.623C339.39 93.4355 339.093 95.8418 338.812 98.8418C338.531 101.811 338.39 104.732 338.39 107.607C339.234 106.17 340.156 104.154 341.156 101.561C344.156 93.6543 345.656 88.4668 345.656 85.998L345.562 84.6855C345.5 83.8105 345.468 83.3262 345.468 83.2324C345.468 82.5449 345.984 82.1543 347.015 82.0605C348.046 81.9668 349.078 82.1699 350.109 82.6699C351.171 83.1387 351.703 83.7324 351.703 84.4512C351.703 85.5762 351.64 88.1074 351.515 92.0449C351.234 98.7949 350.765 105.326 350.109 111.639L352.968 108.264C354.625 106.295 355.593 105.107 355.875 104.701L357.75 101.842C360.031 98.373 361.484 96.6387 362.109 96.6387ZM340.968 133.623C342.875 133.623 344.25 129.201 345.093 120.357C341.593 125.232 339.843 128.951 339.843 131.514C339.843 132.92 340.218 133.623 340.968 133.623ZM375.375 86.8418C375.5 86.9668 375.562 87.2012 375.562 87.5449C375.562 89.2637 375.156 92.1074 374.343 96.0762C373.562 100.389 373.171 103.842 373.171 106.436C373.171 107.467 373.265 108.404 373.453 109.248C374.421 108.154 375.546 106.639 376.828 104.701L376.875 104.654V104.607L376.921 104.561L376.968 104.514V104.467L377.015 104.42L377.062 104.373V104.326L377.109 104.279L377.156 104.232L377.203 104.186V104.139C380.359 99.5449 382.234 97.0762 382.828 96.7324C382.921 96.6699 383 96.6387 383.062 96.6387C383.312 96.6387 383.5 96.7949 383.625 97.1074C383.75 97.4199 383.75 97.6855 383.625 97.9043L381.703 101.279C379.39 105.592 377.64 108.717 376.453 110.654C375.171 112.779 374.14 113.842 373.359 113.842C370.421 113.842 368.953 111.061 368.953 105.498C368.953 104.092 369.078 102.201 369.328 99.8262C369.578 97.3574 369.703 95.4668 369.703 94.1543C369.703 94.0293 369.64 93.9668 369.515 93.9668C368.671 93.9668 367.531 96.1074 366.093 100.389C364.75 104.639 364.078 108.482 364.078 111.92C364.078 112.045 364.093 112.732 364.125 113.982C364.156 115.201 364.171 115.951 364.171 116.232C364.171 118.482 363.75 119.607 362.906 119.607C361.656 119.607 360.75 118.779 360.187 117.123C359.625 115.436 359.25 112.811 359.062 109.248C358.968 108.061 358.968 106.514 359.062 104.607C359.187 102.045 359.25 100.732 359.25 100.67C359.25 100.389 359.203 99.6543 359.109 98.4668C359.015 97.2793 358.968 96.5449 358.968 96.2637C358.968 94.7324 359 93.3887 359.062 92.2324C359.125 91.0137 359.156 89.6699 359.156 88.2012C359.031 86.3887 358.968 84.3418 358.968 82.0605C358.968 80.3418 359.421 79.4824 360.328 79.4824C362.265 79.4824 363.625 79.7793 364.406 80.373C365.187 80.9668 365.578 81.9512 365.578 83.3262C365.578 84.6074 365.359 86.998 364.921 90.498C364.484 94.998 364.234 97.6855 364.171 98.5605C365.046 95.4668 366.156 92.5605 367.5 89.8418C368.968 87.0293 370.031 85.623 370.687 85.623C373.093 85.623 374.656 86.0293 375.375 86.8418ZM403.125 99.3574C404.218 97.6074 405.078 96.7324 405.703 96.7324C406.14 96.7324 406.359 96.998 406.359 97.5293C406.359 97.7793 406.109 98.3574 405.609 99.2637C405.328 99.8262 404.703 100.904 403.734 102.498C402.796 104.092 402.203 105.123 401.953 105.592C401.953 105.623 401.828 105.857 401.578 106.295C401.328 106.732 401.031 107.248 400.687 107.842C400.375 108.404 400.156 108.842 400.031 109.154C399.5 110.154 398.875 111.107 398.156 112.014C397.437 112.889 396.906 113.248 396.562 113.092C396 113.092 395.296 112.764 394.453 112.107C392.765 110.889 391.781 109.451 391.5 107.795C391.218 105.982 391.218 102.295 391.5 96.7324C390.437 101.607 389.796 104.326 389.578 104.889C387.765 110.139 386.296 112.764 385.171 112.764C384.109 112.764 383.078 112.404 382.078 111.686C381.078 110.936 380.5 110.154 380.343 109.342C380 106.873 379.968 103.279 380.25 98.5605C380.625 90.5605 381.453 86.5605 382.734 86.5605C383.421 86.5605 384.156 86.8574 384.937 87.4512C385.718 88.0137 386.14 88.5137 386.203 88.9512C386.203 89.0449 385.921 91.2949 385.359 95.7012C384.859 100.389 384.687 103.357 384.843 104.607C384.906 105.42 385.046 106.264 385.265 107.139C386.265 106.232 387.953 101.654 390.328 93.4043C390.39 93.1543 390.546 92.3105 390.796 90.873C391.609 86.5605 392.187 84.3887 392.531 84.3574C393.218 84.3574 394.046 84.6387 395.015 85.2012C396.015 85.7637 396.531 86.3418 396.562 86.9355C396.687 87.9355 396.468 91.4355 395.906 97.4355C395.406 103.779 395.281 107.779 395.531 109.436C397.312 107.842 399.843 104.482 403.125 99.3574ZM414.843 79.2949C415.906 78.3887 417.984 77.3887 421.078 76.2949C424.203 75.2012 426.546 74.6543 428.109 74.6543C430.203 74.6543 431.25 75.0449 431.25 75.8262C431.25 76.7324 429.656 77.7168 426.468 78.7793C423.187 79.748 420.531 80.2324 418.5 80.2324C416.687 80.2324 415.468 79.9199 414.843 79.2949ZM409.781 79.2949L410.062 79.5762C410.375 80.2949 410.531 81.0605 410.531 81.873C410.531 83.873 410.312 87.998 409.875 94.248C412.093 86.623 414 82.8105 415.593 82.8105C416.781 82.8105 417.921 83.123 419.015 83.748C420.14 84.373 420.703 85.0605 420.703 85.8105C420.703 86.623 420.671 87.4512 420.609 88.2949C420.546 89.1387 420.515 89.9355 420.515 90.6855L420.421 95.5137V95.6074C421.765 91.4512 422.953 88.5605 423.984 86.9355C424.796 85.5293 425.562 84.8262 426.281 84.8262C427.281 84.8262 428.39 85.1699 429.609 85.8574C430.828 86.5449 431.437 87.2324 431.437 87.9199C431.437 88.6074 431.125 90.6543 430.5 94.0605C429.5 99.748 428.953 104.389 428.859 107.982C428.859 110.17 429.343 111.264 430.312 111.264C431.156 111.264 433.75 107.732 438.093 100.67C439.75 97.9824 440.859 96.6387 441.421 96.6387C441.89 96.6387 442.125 96.873 442.125 97.3418C442.125 98.3418 440.578 101.279 437.484 106.154L436.171 108.357C434.953 110.326 434.156 111.576 433.781 112.107C433 113.201 432.25 114.014 431.531 114.545C430.843 115.045 430.046 115.295 429.14 115.295C425.953 115.295 424.359 112.764 424.359 107.701C424.359 106.045 424.64 103.201 425.203 99.1699C425.796 94.9199 426.093 92.6074 426.093 92.2324C426.093 91.2012 425.828 90.6855 425.296 90.6855C425.234 90.5918 425.078 90.7793 424.828 91.248C423.734 93.3418 422.609 96.3262 421.453 100.201C420.765 102.514 420.421 104.186 420.421 105.217C420.328 105.592 420.234 106.42 420.14 107.701C419.984 108.982 419.796 109.889 419.578 110.42C419.359 110.92 419 111.17 418.5 111.17C417.468 111.17 416.546 110.795 415.734 110.045C414.953 109.264 414.562 108.545 414.562 107.889C414.562 106.982 414.718 104.451 415.031 100.295C415.406 96.5449 415.593 93.5762 415.593 91.3887C415.593 89.7012 415.343 88.8574 414.843 88.8574C414.437 88.8574 413.703 90.4355 412.64 93.5918C411.64 97.0293 410.968 99.9668 410.625 102.404C410.187 105.717 409.968 110.264 409.968 116.045C409.968 116.576 409.781 117.014 409.406 117.357C409.031 117.701 408.64 117.873 408.234 117.873C406.89 117.873 405.89 116.311 405.234 113.186C404.734 110.342 404.484 106.529 404.484 101.748C404.484 101.373 404.546 99.123 404.671 94.998C404.796 90.748 404.859 88.4824 404.859 88.2012C404.859 87.7012 404.812 86.5605 404.718 84.7793C404.625 82.9668 404.578 81.7793 404.578 81.2168C404.578 79.4668 405.609 78.5918 407.671 78.5918C408.453 78.5918 409.156 78.8262 409.781 79.2949ZM444.14 94.7168C445.703 93.9668 446.796 93.5918 447.421 93.5918C449.546 93.5918 450.609 96.4355 450.609 102.123C450.609 102.311 450.703 102.498 450.89 102.686C451.359 102.279 451.984 101.623 452.765 100.717C453.578 99.7793 454.281 98.9668 454.875 98.2793C455.468 97.5918 455.828 97.248 455.953 97.248C456.421 97.248 456.656 97.5293 456.656 98.0918C456.656 98.623 455.375 100.889 452.812 104.889C451.968 106.264 450.843 107.514 449.437 108.639C449.437 109.201 448.968 110.279 448.031 111.873C447.125 113.436 446.187 114.217 445.218 114.217C442.968 114.217 441.156 113.389 439.781 111.732C438.406 110.045 437.718 107.795 437.718 104.982C437.718 100.045 438.453 93.9355 439.921 86.6543C440.296 84.6855 441.14 83.7012 442.453 83.7012C443.234 83.7012 444.093 84.0605 445.031 84.7793C446 85.4668 446.484 86.0293 446.484 86.4668C446.484 86.8418 446.125 88.1855 445.406 90.498C444.593 93.123 444.171 94.5293 444.14 94.7168ZM444.14 110.279C444.578 110.279 445.062 109.67 445.593 108.451C446.187 107.107 446.484 106.186 446.484 105.686C445.921 104.904 445.343 103.717 444.75 102.123C444.187 100.498 443.828 99.1543 443.671 98.0918C443.234 100.248 443.015 102.936 443.015 106.154C443.015 108.904 443.39 110.279 444.14 110.279Z" fill="#3C4529"/>
</g>
<defs>
<filter id="filter0_d_31_289" x="-8" y="0" width="764" height="211" filterUnits="userSpaceOnUse" color-interpolation-filters="sRGB">
<feFlood flood-opacity="0" result="BackgroundImageFix"/>
<feColorMatrix in="SourceAlpha" type="matrix" values="0 0 0 0 0 0 0 0 0 0 0 0 0 0 0 0 0 0 127 0" result="hardAlpha"/>
<feOffset dy="4"/>
<feGaussianBlur stdDeviation="4"/>
<feComposite in2="hardAlpha" operator="out"/>
<feColorMatrix type="matrix" values="0 0 0 0 0 0 0 0 0 0 0 0 0 0 0 0 0 0 0.25 0"/>
<feBlend mode="normal" in2="BackgroundImageFix" result="effect1_dropShadow_31_289"/>
<feBlend mode="normal" in="SourceGraphic" in2="effect1_dropShadow_31_289" result="shape"/>
</filter>
<filter id="filter1_d_31_289" x="46.1065" y="4.67578" width="655.787" height="201.648" filterUnits="userSpaceOnUse" color-interpolation-filters="sRGB">
<feFlood flood-opacity="0" result="BackgroundImageFix"/>
<feColorMatrix in="SourceAlpha" type="matrix" values="0 0 0 0 0 0 0 0 0 0 0 0 0 0 0 0 0 0 127 0" result="hardAlpha"/>
<feOffset dy="4"/>
<feGaussianBlur stdDeviation="2"/>
<feComposite in2="hardAlpha" operator="out"/>
<feColorMatrix type="matrix" values="0 0 0 0 0 0 0 0 0 0 0 0 0 0 0 0 0 0 0.25 0"/>
<feBlend mode="normal" in2="BackgroundImageFix" result="effect1_dropShadow_31_289"/>
<feBlend mode="normal" in="SourceGraphic" in2="effect1_dropShadow_31_289" result="shape"/>
</filter>
</defs>
</svg>
